# xmcd CD database file
# Copyright (C) 1993-1996 Ti Kan
#
# Track frame offsets:
#  150
#  9182
#  18814
#  32935
#  45923
#  58335
#  68062
#  81260
#  91723
#  103941
#  118737
#  124729
#  135159
#  147199
#  160182
#  171318
#  183946
#  195370
#
# Disc length: 2773 seconds
#
# Revision: 2
# Processed by: cddbd v1.5.2PL0 Copyright (c) Steve Scherf et al.
# Submitted via: Advanced CD Ripper Pro 2.0
#
DISCID=e20ad312
DTITLE=Various Artist - Country club collection [CD 1/5)
DYEAR=2003
DGENRE=Country
TTITLE0=Frankie Laine - Rawhide
TTITLE1=Merle Travis - 16 tons
TTITLE2=Glenn Campbell - Rhinestone cowboy
TTITLE3=Don Williams - Where do we go from here
TTITLE4=Charlie Rich - Behind clossed doors
TTITLE5=Johnny Cash - Born to lose
TTITLE6=Pat Boone - Jambalaya
TTITLE7=Roger Miller - Kansas city star
TTITLE8=Merle Haggard - Okie from muskogee
TTITLE9=Roy Clark - Yesterday when I was young
TTITLE10=Jim Reeves - Have I told you lately that I love you
TTITLE11=Jim Nesbitt - Running bear
TTITLE12=Waylon Jennings - Don't think twice
TTITLE13=Kenny Rogers - Reuben James
TTITLE14=Slim Whitman - Singing the Blues
TTITLE15=Stonewall Jackson - Me and you and a dog named Boo
TTITLE16=Bobby Bare - That's how I got to Menphis
TTITLE17=Willie Nelson - Any old arms won't do
EXTD=
EXTT0=
EXTT1=
EXTT2=
EXTT3=
EXTT4=
EXTT5=
EXTT6=
EXTT7=
EXTT8=
EXTT9=
EXTT10=
EXTT11=
EXTT12=
EXTT13=
EXTT14=
EXTT15=
EXTT16=
EXTT17=
PLAYORDER=
